{
  "title": "LEGO Batman The Movie 2013 WEBRip XviD juggs",
  "uid": 8346180,
  "size": 742708695,
  "categoryP": "video",
  "categoryS": "movies",
  "magnet": "?xt=urn:btih:f0e25f129c8183f3d00e14da433a193d6538a2f3&amp;dn=LEGO+Batman+The+Movie+2013+WEBRip+XviD+juggs&amp;tr=udp%3A%2F%2Ftracker.openbittorrent.com%3A80&amp;tr=udp%3A%2F%2Fopen.demonii.com%3A1337&amp;tr=udp%3A%2F%2Ftracker.coppersurfer.tk%3A6969&amp;tr=udp%3A%2F%2Fexodus.desync.com%3A6969",
  "seeders": 53,
  "leechers": 7,
  "uploader": "juggs99",
  "files": 3,
  "time": 1365208369,
  "description": "Source : WEB DL YFN (Thanks)\n &lt;a href=&quot;\nhttp://www.imdb.com/title/tt2465238/&quot; rel=&quot;nofollow&quot; target=&quot;_NEW&quot;&gt;\nhttp://www.imdb.com/title/tt2465238/&lt;/a&gt;\n\n\nFormat                                   : AVI\nFormat/Info                              : Audio Video Interleave\nFile size                                : 699 MiB\nDuration                                 : 1h 10mn\nOverall bit rate                         : 1 382 Kbps\nWriting library                          : VirtualDub build 32842/release\n\nVideo\nID                                       : 0\nFormat                                   : MPEG-4 Visual\nFormat profile                           : Advanced Simple@L5\nFormat settings, BVOP                    : 4\nFormat settings, QPel                    : No\nFormat settings, GMC                     : No warppoints\nFormat settings, Matrix                  : Default (H.263)\nMuxing mode                              : Packed bitstream\nCodec ID                                 : XVID\nCodec ID/Hint                            : XviD\nDuration                                 : 1h 10mn\nBit rate                                 : 1 244 Kbps\nWidth                                    : 640 pixels\nHeight                                   : 352 pixels\nDisplay aspect ratio                     : 16:9\nFrame rate                               : 23.976 fps\nColor space                              : YUV\nChroma subsampling                       : 4:2:0\nBit depth                                : 8 bits\nScan type                                : Progressive\nCompression mode                         : Lossy\nBits/(Pixel*Frame)                       : 0.230\nStream size                              : 629 MiB (90%)\nWriting library                          : XviD 1.2.0.dev47 (UTC 2006-11-01)\n\nAudio\nID                                       : 1\nFormat                                   : MPEG Audio\nFormat version                           : Version 1\nFormat profile                           : Layer 3\nCodec ID                                 : 55\nCodec ID/Hint                            : MP3\nDuration                                 : 1h 10mn\nBit rate mode                            : Constant\nBit rate                                 : 128 Kbps\nChannel(s)                               : 2 channels\nSampling rate                            : 44.1 KHz\nCompression mode                         : Lossy\nStream size                              : 64.7 MiB (9%)\nAlignment                                : Split accross interleaves\nInterleave, duration                     : 42 ms (1.00 video frame)\nInterleave, preload duration             : 500 ms\nWriting library                          : LAME3.99r\nEncoding settings                        : -m s -V 4 -q 3 -lowpass 17 -b 128\n &lt;a href=&quot;\nhttp://www.shotpix.com/images/13861733295170927518.png&quot; rel=&quot;nofollow&quot; target=&quot;_NEW&quot;&gt;\nhttp://www.shotpix.com/images/13861733295170927518.png&lt;/a&gt; &lt;a href=&quot;\nhttp://www.shotpix.com/images/22175673824721130003.png&quot; rel=&quot;nofollow&quot; target=&quot;_NEW&quot;&gt;\nhttp://www.shotpix.com/images/22175673824721130003.png&lt;/a&gt; &lt;a href=&quot;\nhttp://www.shotpix.com/images/74622717651991894688.png&quot; rel=&quot;nofollow&quot; target=&quot;_NEW&quot;&gt;\nhttp://www.shotpix.com/images/74622717651991894688.png&lt;/a&gt;",
  "parsed": {
    "xt": "urn:btih:f0e25f129c8183f3d00e14da433a193d6538a2f3",
    "dn": "LEGO Batman The Movie 2013 WEBRip XviD juggs",
    "tr": [
      "udp://exodus.desync.com:6969",
      "udp://open.demonii.com:1337",
      "udp://tracker.coppersurfer.tk:6969",
      "udp://tracker.openbittorrent.com:80"
    ],
    "infoHash": "f0e25f129c8183f3d00e14da433a193d6538a2f3",
    "infoHashBuffer": {
      "type": "Buffer",
      "data": [
        240,
        226,
        95,
        18,
        156,
        129,
        131,
        243,
        208,
        14,
        20,
        218,
        67,
        58,
        25,
        61,
        101,
        56,
        162,
        243
      ]
    },
    "name": "LEGO Batman The Movie 2013 WEBRip XviD juggs",
    "announce": [
      "udp://exodus.desync.com:6969",
      "udp://open.demonii.com:1337",
      "udp://tracker.coppersurfer.tk:6969",
      "udp://tracker.openbittorrent.com:80"
    ],
    "urlList": []
  },
  "previous": 60,
  "peers": 9,
  "last_updated": "2016-12-25T17:47:23.905Z"
}